HIERARCHY
ROOT hip
{
	OFFSET 0.000000 0.000000 0.000000 
	CHANNELS 6 Xposition Yposition Zposition Zrotation Xrotation Yrotation
	JOINT abdomen
	{
		OFFSET 0.000000 3.402643 0.000000 
		CHANNELS 3 Zrotation Xrotation Yrotation
		JOINT chest
		{
			OFFSET 0.000000 8.438565 -0.680529 
			CHANNELS 3 Zrotation Xrotation Yrotation
			JOINT neck
			{
				OFFSET 0.000000 10.207942 -0.272212 
				CHANNELS 3 Zrotation Xrotation Yrotation
				JOINT head
				{
					OFFSET 0.000000 3.130431 0.000000 
					CHANNELS 3 Zrotation Xrotation Yrotation
					End Site
					{
						OFFSET 0.000000 3.130435 0.000000 
					}
				}
			}
			JOINT lCollar
			{
				OFFSET 3.470700 6.669187 -0.816635 
				CHANNELS 3 Zrotation Xrotation Yrotation
				JOINT lShldr
				{
					OFFSET 3.198488 0.000000 0.000000 
					CHANNELS 3 Zrotation Xrotation Yrotation
					JOINT lForeArm
					{
						OFFSET 10.139888 0.000000 0.000000 
						CHANNELS 3 Zrotation Xrotation Yrotation
						JOINT lHand
						{
							OFFSET 8.370511 0.000000 0.000000 
							CHANNELS 3 Zrotation Xrotation Yrotation
							End Site
							{
								OFFSET 4.083176 0.000000 0.000000 
							}
						}
					}
				}
			}
			JOINT rCollar
			{
				OFFSET -3.470700 6.669187 -0.816635 
				CHANNELS 3 Zrotation Xrotation Yrotation
				JOINT rShldr
				{
					OFFSET -3.198488 0.000000 0.000000 
					CHANNELS 3 Zrotation Xrotation Yrotation
					JOINT rForeArm
					{
						OFFSET -10.139888 0.000000 0.000000 
						CHANNELS 3 Zrotation Xrotation Yrotation
						JOINT rHand
						{
							OFFSET -8.370511 0.000000 0.000000 
							CHANNELS 3 Zrotation Xrotation Yrotation
							End Site
							{
								OFFSET -4.083176 0.000000 0.000000 
							}
						}
					}
				}
			}
		}
	}
	JOINT lThigh
	{
		OFFSET 5.308129 -1.633274 1.361059 
		CHANNELS 3 Zrotation Xrotation Yrotation
		JOINT lShin
		{
			OFFSET -2.041588 -20.007561 0.000000 
			CHANNELS 3 Zrotation Xrotation Yrotation
			JOINT lFoot
			{
				OFFSET 0.000000 -19.190928 -1.224953 
				CHANNELS 3 Zrotation Xrotation Yrotation
				End Site
				{
					OFFSET 0.000000 -2.449906 4.627600 
				}
			}
		}
	}
	JOINT rThigh
	{
		OFFSET -5.308129 -1.633274 1.361059 
		CHANNELS 3 Zrotation Xrotation Yrotation
		JOINT rShin
		{
			OFFSET 2.041588 -20.007561 0.000000 
			CHANNELS 3 Zrotation Xrotation Yrotation
			JOINT rFoot
			{
				OFFSET 0.000000 -19.190928 -1.224953 
				CHANNELS 3 Zrotation Xrotation Yrotation
				End Site
				{
					OFFSET 0.000000 -2.449906 4.627600 
				}
			}
		}
	}
}
MOTION
Frames: 11
Frame Time: 0.016667
-0.052205 43.516403 -1.167150 -2.871100 0.839844 -1.807080 -2.439790 15.939500 0.751653 -0.798450 -22.695299 -0.021181 -8.035360 -5.493640 5.785900 0.734550 3.634480 3.064820 -1.998780 -0.069785 1.998780 -87.214798 -4.683440 7.635650 1.025080 -1.271880 -27.696400 -0.039286 43.169998 -0.007712 1.998780 -0.069785 -1.998780 86.778397 8.637250 -2.880230 0.464320 0.080375 23.513201 -0.034317 65.927902 0.110436 7.238240 -10.199300 0.287516 3.055010 27.945999 0.716124 -1.092550 -13.675500 -3.625960 -4.551130 -10.105524 -9.692001 -2.949500 22.167299 -0.652981 0.666690 -15.876600 2.299360 
-0.062824 43.517303 -1.107190 -2.441400 0.771484 -1.709370 -2.361320 16.106600 0.723861 -0.948648 -22.666000 -0.031770 -8.022250 -5.858000 5.834940 0.666263 3.468390 3.098890 -1.998780 -0.069785 1.998780 -87.080399 -6.692410 7.903320 0.998709 -1.253250 -26.476700 -0.035664 44.419998 -0.012776 1.998780 -0.069785 -1.998780 86.661301 7.179210 -3.299710 0.446958 0.075026 22.996000 -0.043821 66.894997 0.121124 6.748430 -10.066400 0.138568 3.086230 27.893000 0.691701 -1.122360 -13.611100 -3.671880 -4.993650 -10.319182 -10.013872 -3.080250 22.918900 -0.574231 0.755132 -16.420300 2.418770 
-0.089004 43.506203 -1.092380 -2.753900 0.742188 -1.611760 -2.501930 16.026400 0.792935 -0.877520 -22.705099 0.031702 -7.735920 -6.943020 5.257610 0.715828 2.921570 2.841530 -1.998780 -0.069785 1.998780 -86.776100 -8.835370 8.146430 0.970005 -1.233910 -25.169201 -0.041523 45.855999 -0.004853 1.998780 -0.069785 -1.998780 86.588600 5.684370 -3.718300 0.426917 0.069065 22.400700 -0.051483 67.616898 0.129669 7.073920 -10.098500 -0.054473 3.108570 28.126900 0.679390 -1.122170 -13.673300 -3.709080 -4.598070 -10.092013 -9.824263 -3.043730 22.598101 -0.594048 0.677532 -16.187700 2.170080 
-0.134122 43.498505 -1.064900 -3.349610 0.654296 -1.660670 -2.630300 15.829100 0.896926 -0.678942 -22.822201 0.179962 -7.510040 -7.760180 5.175150 0.706532 2.521170 2.812900 -1.998780 -0.069785 1.998780 -86.337799 -11.116200 8.586880 0.939552 -1.214420 -23.803101 -0.037092 47.340000 -0.011110 1.998780 -0.069785 -1.998780 86.496902 4.228110 -4.274660 0.406816 0.063312 21.805401 -0.060031 68.368896 0.139131 7.728450 -10.248200 -0.190861 3.165850 28.740601 0.640592 -1.167440 -14.032100 -3.761930 -3.827360 -9.798944 -9.358101 -3.014940 22.177500 -0.609008 0.543827 -15.918600 1.686750 
-0.181484 43.493706 -1.062630 -3.496100 0.556640 -1.602090 -2.628330 15.712000 0.945215 -0.601251 -22.861099 0.317678 -7.170950 -8.411970 5.298850 0.726408 2.237990 2.879870 -1.998780 -0.069785 1.998780 -85.856102 -14.097700 8.751560 0.905083 -1.193550 -22.280899 -0.030645 49.303001 -0.019940 1.998780 -0.069785 -1.998780 86.391502 2.686970 -4.674150 0.386655 0.057768 21.210100 -0.095151 69.169899 0.177358 7.921960 -10.229100 -0.269943 3.178460 28.906300 0.625536 -1.141040 -14.155200 -3.679440 -3.554241 -9.571971 -8.972571 -2.992040 21.952600 -0.599676 0.443942 -15.612500 1.268620 
-0.190302 43.478905 -1.004250 -3.046880 0.429688 -1.162600 -2.679710 15.760000 1.002280 -0.777920 -22.900000 0.370711 -6.760160 -8.618290 5.316950 0.833973 2.130680 2.872350 -1.998780 -0.069785 1.998780 -85.268600 -17.287800 8.995630 0.868261 -1.172610 -20.680599 -0.021093 51.861000 -0.032555 1.998780 -0.069785 -1.998780 86.298103 0.737595 -5.202420 0.362454 0.051410 20.497700 -0.114697 70.468903 0.198362 7.387280 -10.007600 -0.528937 3.163650 28.790300 0.647509 -1.196140 -14.066000 -3.778880 -4.057731 -9.512961 -9.495582 -3.041100 22.371099 -0.590499 0.421639 -16.337000 1.290040 
-0.204309 43.467606 -0.976573 -3.076170 0.361329 -0.791512 -2.853530 15.864600 1.131640 -0.761161 -22.889799 0.529567 -6.090820 -8.798400 5.395890 1.068450 2.043000 2.885250 -1.998780 -0.069785 1.998780 -84.684700 -20.384001 9.136160 0.834773 -1.154720 -19.246300 -0.011258 54.146999 -0.045086 1.998780 -0.069785 -1.998780 86.140503 -0.624579 -5.609320 0.348163 0.047806 20.077999 -0.121924 70.907898 0.206081 7.403180 -9.901670 -0.698345 3.167630 28.730200 0.631177 -1.245390 -13.984600 -3.927030 -4.038630 -9.558532 -9.942642 -3.068420 22.713200 -0.580982 0.377062 -16.336700 1.160110 
-0.251560 43.454605 -0.955984 -2.841790 0.175782 -0.469223 -2.740710 15.778500 1.092080 -0.833203 -22.919100 0.519070 -5.968470 -8.899970 5.470220 1.048960 1.984400 2.915910 -1.998780 -0.069785 1.998780 -84.102402 -22.823601 9.435690 0.809888 -1.142110 -18.192499 -0.007521 54.938000 -0.049748 1.998780 -0.069785 -1.998780 86.092003 -1.771330 -5.745750 0.324842 0.042163 19.394899 -0.143736 72.118896 0.229245 7.166760 -9.754630 -0.829180 3.179380 28.808001 0.632234 -1.296230 -13.999100 -4.011220 -4.237440 -9.339591 -10.077272 -3.095610 22.887400 -0.573076 0.222489 -15.493200 0.677080 
-0.297883 43.457203 -0.969369 -3.173830 0.205078 -0.078648 -2.901590 15.727000 1.197560 -0.696766 -23.006599 0.657187 -5.798170 -9.115150 5.281370 1.107660 1.837960 2.814150 -1.998780 -0.069785 1.998780 -83.619598 -24.450899 9.712230 0.793170 -1.133960 -17.489901 -0.002646 55.914001 -0.055760 1.998780 -0.069785 -1.998780 86.077301 -3.685040 -5.867170 0.302793 0.037096 18.750700 -0.187975 74.149803 0.275744 7.560280 -9.947620 -1.003977 3.193610 28.992800 0.605686 -1.271440 -13.999200 -3.939620 -3.765620 -9.373281 -10.034742 -3.076540 22.811001 -0.582350 0.096197 -15.241900 0.258117 
-0.349458 43.448406 -0.964402 -2.939450 0.039063 0.399893 -2.798590 15.621400 1.161480 -0.735795 -23.026100 0.657270 -5.510270 -9.104950 5.084080 1.263890 1.808760 2.705560 -1.998780 -0.069785 1.998780 -83.348999 -24.975800 9.968420 0.790609 -1.132740 -17.382601 -0.002140 56.012001 -0.056378 1.998780 -0.069785 -1.998780 86.056602 -4.637010 -5.882320 0.290742 0.034437 18.399300 -0.209306 74.970802 0.297983 7.343000 -9.852220 -1.207144 3.181470 29.113001 0.630198 -1.305120 -13.988000 -4.051200 -3.931540 -9.130701 -10.117262 -3.073510 22.791300 -0.574621 -0.025297 -15.224200 -0.112933 
-0.407108 43.427105 -0.953857 -3.085940 -0.195312 0.781234 -2.716760 15.564000 1.113240 -0.617751 -22.997000 0.604150 -5.235710 -9.069560 4.967610 1.439630 1.808830 2.634670 -1.998780 -0.069785 1.998780 -83.404999 -23.785999 10.294100 0.806181 -1.140280 -18.036400 -0.011797 54.028999 -0.044410 1.998780 -0.069785 -1.998780 86.014099 -4.676600 -5.755210 0.286724 0.033567 18.282301 -0.215293 75.185799 0.304208 7.529830 -9.721990 -1.440866 3.211350 29.344900 0.585663 -1.344870 -14.070900 -4.149440 -3.653771 -8.870471 -10.140343 -3.093300 22.798700 -0.569871 -0.147247 -15.214700 -0.566404 
